<mxfile host="app.diagrams.net" modified="2024-01-15T19:53:17.252Z" agent="Mozilla/5.0 (X11; Linux x86_64; rv:121.0) Gecko/20100101 Firefox/121.0" etag="_f5u7DYNjI3kdEpGAAP6" version="22.1.18" type="device">
  <diagram name="Page-1" id="DnBegjlpuCGUi2WfoPEF">
    <mxGraphModel dx="979" dy="591" grid="1" gridSize="10" guides="1" tooltips="1" connect="1" arrows="1" fold="1" page="1" pageScale="1" pageWidth="850" pageHeight="1100" math="0" shadow="0">
      <root>
        <mxCell id="0" />
        <mxCell id="1" parent="0" />
        <mxCell id="FAB6VMX6zJVX9zr2VpgF-15" value="" style="rounded=0;whiteSpace=wrap;html=1;" vertex="1" parent="1">
          <mxGeometry x="220" y="40" width="205" height="370" as="geometry" />
        </mxCell>
        <mxCell id="FAB6VMX6zJVX9zr2VpgF-16" value="Pottum" style="rounded=0;whiteSpace=wrap;html=1;" vertex="1" parent="1">
          <mxGeometry x="220" y="40" width="205" height="40" as="geometry" />
        </mxCell>
        <mxCell id="FAB6VMX6zJVX9zr2VpgF-27" style="rounded=0;orthogonalLoop=1;jettySize=auto;html=1;entryX=0;entryY=0.5;entryDx=0;entryDy=0;" edge="1" parent="1" source="FAB6VMX6zJVX9zr2VpgF-14" target="FAB6VMX6zJVX9zr2VpgF-21">
          <mxGeometry relative="1" as="geometry" />
        </mxCell>
        <mxCell id="FAB6VMX6zJVX9zr2VpgF-28" style="edgeStyle=orthogonalEdgeStyle;rounded=0;orthogonalLoop=1;jettySize=auto;html=1;" edge="1" parent="1" source="FAB6VMX6zJVX9zr2VpgF-14" target="FAB6VMX6zJVX9zr2VpgF-22">
          <mxGeometry relative="1" as="geometry" />
        </mxCell>
        <mxCell id="FAB6VMX6zJVX9zr2VpgF-29" style="rounded=0;orthogonalLoop=1;jettySize=auto;html=1;entryX=0;entryY=0.5;entryDx=0;entryDy=0;" edge="1" parent="1" source="FAB6VMX6zJVX9zr2VpgF-14" target="FAB6VMX6zJVX9zr2VpgF-23">
          <mxGeometry relative="1" as="geometry" />
        </mxCell>
        <mxCell id="FAB6VMX6zJVX9zr2VpgF-14" value="User" style="shape=umlActor;verticalLabelPosition=bottom;verticalAlign=top;html=1;" vertex="1" parent="1">
          <mxGeometry x="100" y="215" width="30" height="60" as="geometry" />
        </mxCell>
        <mxCell id="FAB6VMX6zJVX9zr2VpgF-21" value="&lt;div&gt;Beitrag&lt;/div&gt;&lt;div&gt;erfassen&lt;br&gt;&lt;/div&gt;" style="ellipse;whiteSpace=wrap;html=1;" vertex="1" parent="1">
          <mxGeometry x="255" y="110" width="140" height="70" as="geometry" />
        </mxCell>
        <mxCell id="FAB6VMX6zJVX9zr2VpgF-22" value="&lt;div&gt;Beitrag&lt;/div&gt;&lt;div&gt;filtern&lt;br&gt;&lt;/div&gt;" style="ellipse;whiteSpace=wrap;html=1;" vertex="1" parent="1">
          <mxGeometry x="255" y="210" width="140" height="70" as="geometry" />
        </mxCell>
        <mxCell id="FAB6VMX6zJVX9zr2VpgF-23" value="&lt;div&gt;Beitrag&lt;/div&gt;&lt;div&gt;anzeigen&lt;br&gt;&lt;/div&gt;" style="ellipse;whiteSpace=wrap;html=1;" vertex="1" parent="1">
          <mxGeometry x="255" y="310" width="140" height="70" as="geometry" />
        </mxCell>
      </root>
    </mxGraphModel>
  </diagram>
</mxfile>
